<?xml version="1.0" encoding="utf-8"?>
<!-- Generator: Adobe Illustrator 20.1.0, SVG Export Plug-In . SVG Version: 6.00 Build 0)  -->
<svg version="1.1" id="Capa_1" xmlns="http://www.w3.org/2000/svg" xmlns:xlink="http://www.w3.org/1999/xlink" x="0px" y="0px"
	 viewBox="0 0 320.8 329.7" style="enable-background:new 0 0 320.8 329.7;" xml:space="preserve">
<style type="text/css">
	.st0{fill:#F1E5D0;}
</style>
<g>
	<path class="st0" d="M160.3,203.5c-0.1,0-0.2,0-0.4-0.1c-29.9-8-31.5-39-31.5-39.3c0-0.5,0.3-1,0.7-1.3c0.5-0.3,1-0.2,1.5,0.1
		l3.4,2.3c-5.1-12.4,0.4-22.1,0.7-22.6c0.3-0.5,0.8-0.8,1.4-0.7c0.6,0.1,1,0.5,1.2,1.1c0.3,1.4,1.2,3.1,2.3,4.7
		c-0.4-2.3-0.9-5.1-1-7.6c-0.3-4.9,1.8-13.3,2.4-15.2c0.5-1.7,0.9-2.8,2-3c0.5-0.1,1.1,0.2,1.4,0.6c0,0.1,0.1,0.1,0.1,0.2l3.4,7.8
		c4.5-14.4,10.6-24.3,10.9-24.7c0.3-0.4,0.7-0.7,1.2-0.7h0.5c0.5,0,0.9,0.2,1.2,0.7c0.3,0.4,6.4,10.3,10.9,24.7l3.2-7.2
		c0.4-1,1-1.5,1.9-1.4c1.2,0.1,1.5,1.3,1.8,2.3c0.1,0.2,0.1,0.4,0.2,0.7c0.5,1.8,2.7,10.2,2.4,15.2c-0.2,2.5-0.6,5.3-1,7.6
		c1.1-1.6,2-3.3,2.3-4.7c0.1-0.6,0.6-1,1.2-1.1c0.6-0.1,1.1,0.2,1.4,0.7c0.3,0.5,5.7,10.2,0.7,22.6l3.4-2.3c0.4-0.3,1-0.3,1.5-0.1
		c0.5,0.3,0.8,0.8,0.7,1.3c0,0.3-1.6,31.3-31.5,39.3C160.5,203.5,160.4,203.5,160.3,203.5 M131.6,167c1.1,7.6,6.2,27.4,28.7,33.6
		c22.5-6.2,27.6-26,28.7-33.6l-5.5,3.7c-0.6,0.4-1.3,0.3-1.8-0.2c-0.5-0.5-0.6-1.2-0.2-1.8c5.8-9.3,4.6-17.5,3.2-21.7
		c-1.6,2.9-3.9,5.6-5,6.8c-0.4,0.5-1.2,0.6-1.8,0.4c-1.1-0.5-0.9-1.1-0.4-4c0.5-2.5,1.4-6.8,1.6-10.4c0.2-3.5-1-9.6-1.9-12.8
		l-3.6,8.1c-0.2,0.6-0.8,0.9-1.4,0.8c-0.6,0-1.1-0.5-1.3-1c-3.4-12.5-8.6-22.3-10.7-26.1c-2.1,3.8-7.3,13.6-10.7,26.1
		c-0.2,0.6-0.7,1-1.3,1c-0.6,0-1.2-0.3-1.4-0.8l-3.6-8.1c-0.8,3.2-2.1,9.2-1.9,12.8c0.2,3.6,1.1,7.9,1.6,10.4c0.6,2.8,0.7,3.4-0.3,4
		c-0.6,0.3-1.3,0.1-1.7-0.3c-1.2-1.3-3.5-4-5.1-6.9c-1.4,4.2-2.7,12.5,3.2,21.7c0.4,0.6,0.3,1.3-0.2,1.8c-0.5,0.5-1.2,0.5-1.8,0.2
		L131.6,167z"/>
	<path class="st0" d="M205.1,224.4c-8.8,0-19-2.6-28.4-11.6c-0.2-0.2-0.3-0.4-0.4-0.6c-1.9-6.4-2.3-12.7-1.2-18.8
		c0.1-0.3,0.2-0.6,0.5-0.8c8.2-7.1,11.5-16.5,12.9-23.1c0.1-0.3,0.2-0.5,0.4-0.7c2.7-2.5,4.6-3.8,4.7-3.9c0.5-0.3,1-0.3,1.5,0
		c0.5,0.3,0.7,0.8,0.7,1.3l-0.2,4.1c8-10.7,19.1-11.1,19.7-11.1c0.6,0,1.1,0.3,1.3,0.9c0.2,0.5,0.1,1.2-0.3,1.6c-1,1-2,2.6-2.8,4.4
		c1.8-1.6,3.9-3.4,6-4.8c4-2.8,12.3-5.4,14.2-5.8c1.8-0.5,2.9-0.7,3.6,0.2c0.4,0.4,0.4,1,0.2,1.5c0,0.1-0.1,0.2-0.1,0.2l-4.9,7
		c14.6-3.6,26.2-3.5,26.8-3.5c0.5,0,0.9,0.3,1.2,0.7l0.2,0.4c0.3,0.4,0.3,0.9,0.1,1.4c-0.2,0.5-5.5,10.8-15.5,22.2l7.8-1
		c1.1-0.1,1.8,0.2,2.1,0.9c0.5,1.1-0.3,2-1,2.7c-0.2,0.2-0.3,0.3-0.5,0.5c-1.3,1.4-7.3,7.6-11.7,9.9c-2.3,1.2-4.8,2.2-7.1,3.1
		c1.8,0.1,3.7,0,5.2-0.5c0.5-0.2,1.2,0,1.5,0.5c0.4,0.5,0.4,1.1,0.1,1.6c-0.3,0.5-5.8,10.2-19,12.3l3.7,1.7c0.5,0.2,0.8,0.7,0.8,1.2
		c0,0.5-0.3,1-0.7,1.3C226.5,219.4,217.2,224.4,205.1,224.4 M178.9,211c16.8,15.8,36.5,10,43.6,7.1l-6-2.7c-0.6-0.3-0.9-1-0.8-1.6
		c0.1-0.7,0.7-1.1,1.4-1.1c11,0.2,17.3-5.2,20.2-8.6c-3.3,0.2-6.8-0.4-8.5-0.8c-0.6-0.1-1.2-0.7-1.2-1.3c-0.1-1.2,0.5-1.4,3.2-2.4
		c2.4-0.9,6.5-2.3,9.7-4c3.2-1.7,7.7-5.9,9.9-8.2l-8.8,1.1c-0.6,0.1-1.2-0.2-1.5-0.8c-0.3-0.5-0.2-1.2,0.2-1.6
		c8.9-9.4,14.6-18.9,16.7-22.7c-4.3,0.1-15.4,0.8-27.8,4.4c-0.6,0.2-1.2,0-1.5-0.5c-0.4-0.5-0.4-1.1,0-1.6l5.1-7.3
		c-3.1,0.9-9,3-11.9,5c-3,2.1-6.2,5-8.1,6.8c-2.1,2-2.6,2.4-3.6,1.8c-0.5-0.3-0.8-1-0.6-1.6c0.5-1.7,1.6-5.1,3.3-7.9
		c-4.3,1-12,4.2-16.9,14c-0.3,0.6-1,0.9-1.6,0.7c-0.7-0.2-1.1-0.8-1.1-1.5l0.3-6.6c-0.5,0.4-1,0.9-1.6,1.5
		c-1.5,6.9-5.1,16.4-13.3,23.8C177,199.7,177.3,205.3,178.9,211z"/>
	<path class="st0" d="M115.9,224.2c-12.3,0-21.7-5.2-21.9-5.3c-0.5-0.3-0.7-0.8-0.7-1.3c0-0.5,0.4-1,0.8-1.2l3.7-1.7
		c-13.2-2.2-18.6-12-18.9-12.4c-0.3-0.5-0.2-1.1,0.2-1.6c0.4-0.4,1-0.6,1.5-0.4c1.5,0.5,3.4,0.6,5.2,0.5c-2.2-0.9-4.8-1.9-7-3.1
		c-4.4-2.3-10.4-8.6-11.7-10c-1.2-1.4-1.9-2.3-1.5-3.3c0.2-0.5,0.7-0.9,1.3-0.9c0.1,0,0.2,0,0.3,0l8.4,1.2
		c-9.9-11.4-15-21.8-15.3-22.3c-0.2-0.4-0.2-1,0.1-1.4l0.2-0.4c0.3-0.4,0.7-0.7,1.2-0.7c0.5,0,12.2,0,26.8,3.7l-4.4-6.5
		c-0.6-0.9-0.7-1.7-0.2-2.3c0.7-1,1.9-0.6,2.9-0.3c0.2,0.1,0.4,0.1,0.6,0.2c1.8,0.5,10.1,3.1,14.1,6c2.1,1.5,4.2,3.3,5.9,4.9
		c-0.7-1.7-1.7-3.3-2.8-4.4c-0.4-0.4-0.5-1-0.3-1.6c0.2-0.5,0.7-0.9,1.3-0.9c0.5,0,11.7,0.5,19.6,11.3l-0.2-4.1c0-0.5,0.3-1,0.7-1.3
		c0.5-0.3,1-0.2,1.5,0.1c0.1,0,1.7,1.1,3.9,3.2c0.2,0.2,0.4,0.5,0.4,0.8c1.1,5.7,4.3,16.3,13.5,24.1c0.3,0.2,0.4,0.5,0.5,0.9
		c0.9,6,0.4,12.2-1.4,18.5c-0.1,0.2-0.2,0.5-0.4,0.6C134.7,221.6,124.6,224.2,115.9,224.2 M98.1,217.8c7,3,26.5,9.2,43.7-6.7
		c1.6-5.6,2.1-11,1.3-16.3c-9.2-8.1-12.7-18.9-13.9-24.9c-0.3-0.3-0.6-0.6-0.9-0.8l0.3,6.6c0,0.7-0.4,1.3-1.1,1.4
		c-0.7,0.2-1.3-0.2-1.6-0.8c-4.8-9.7-12.5-13-16.8-14.1c1.6,2.8,2.7,6.2,3.2,7.8c0.2,0.6-0.1,1.4-0.6,1.7c-1,0.6-1.4,0.2-3.6-1.8
		c-1.9-1.8-5-4.7-8-6.8c-2.9-2.1-8.7-4.2-11.8-5.1l5,7.3c0.3,0.5,0.3,1.2,0,1.6c-0.4,0.5-1,0.7-1.6,0.5c-12.4-3.7-23.5-4.4-27.8-4.6
		c2.1,3.8,7.7,13.3,16.5,22.8c0.4,0.4,0.5,1.1,0.2,1.6c-0.3,0.5-0.9,0.8-1.5,0.8l-8.8-1.2c2.3,2.4,6.7,6.6,9.9,8.3
		c3.2,1.7,7.3,3.2,9.7,4.1c2.7,1,3.3,1.2,3.2,2.4c-0.1,0.6-0.6,1.2-1.2,1.3c-1.7,0.3-5.2,0.9-8.5,0.7c2.9,3.4,9.1,8.7,19.9,8.7
		c0.1,0,0.2,0,0.3,0c0.7,0,1.2,0.5,1.4,1.1c0.1,0.7-0.2,1.3-0.8,1.6L98.1,217.8z"/>
	<path class="st0" d="M282.7,224.5H38.1c-0.8,0-1.4-0.6-1.4-1.4c0-0.8,0.6-1.4,1.4-1.4h244.5c0.8,0,1.4,0.6,1.4,1.4
		C284.1,223.9,283.4,224.5,282.7,224.5"/>
	<path class="st0" d="M160.3,224.4c-0.5,0-0.9-0.4-0.9-0.9v-0.6c0,0,0,0,0,0v-73.5c0-0.5,0.4-0.9,0.9-0.9c0.5,0,0.9,0.4,0.9,0.9
		v71.9l62.3-37.9c0.4-0.3,1-0.1,1.2,0.3c0.3,0.4,0.1,1-0.3,1.2l-63.2,38.5v0.2C161.1,224,160.7,224.4,160.3,224.4"/>
	<path class="st0" d="M160.3,223.7c-0.2,0-0.3,0-0.5-0.1l-63.7-38.7c-0.4-0.3-0.6-0.8-0.3-1.2c0.3-0.4,0.8-0.6,1.2-0.3l63.7,38.7
		c0.4,0.3,0.6,0.8,0.3,1.2C160.8,223.6,160.6,223.7,160.3,223.7"/>
</g>
</svg>
