<?xml version="1.0" standalone="no"?>
<!DOCTYPE svg PUBLIC "-//W3C//DTD SVG 1.1//EN" "http://www.w3.org/Graphics/SVG/1.1/DTD/svg11.dtd" >
<svg xmlns="http://www.w3.org/2000/svg">
<metadata>Generated by IcoMoon</metadata>
<defs>
<font id="fwdm" horiz-adv-x="1024">
<font-face units-per-em="1024" ascent="960" descent="-64" />
<missing-glyph horiz-adv-x="1024" />
<glyph unicode="&#x20;" horiz-adv-x="512" d="" />
<glyph unicode="&#xe900;" glyph-name="close" d="M814.891 177.702c-21.231-21.227-59.661-17.22-85.833 8.956l-435.734 435.731c-26.175 26.175-30.183 64.604-8.954 85.834s59.659 17.221 85.834-8.954l435.73-435.73c26.176-26.176 30.187-64.606 8.956-85.837zM265.85 169.254c-21.23 21.231-17.221 59.661 8.954 85.833l435.733 435.734c26.172 26.175 64.602 30.184 85.833 8.954s17.22-59.659-8.956-85.833l-435.73-435.732c-26.175-26.176-64.604-30.187-85.834-8.956z" />
<glyph unicode="&#xe901;" glyph-name="down" d="M494.613 284.471l-292.582 292.581c-9.355 9.686-9.086 25.121 0.6 34.476 9.449 9.126 24.428 9.126 33.876 0l275.344-275.344 275.341 275.344c9.523 9.519 24.956 9.519 34.479 0 9.519-9.522 9.519-24.955 0-34.476l-292.582-292.581c-9.523-9.519-24.956-9.519-34.475 0zM799.253 599.453c-0.004-0.001 0 0.001 0 0l-287.407-287.41-287.278 287.278c-2.837 2.665-7.276 2.641-10.086-0.073-2.881-2.782-2.985-7.357-0.253-10.267l292.446-292.447c2.854-2.85 7.479-2.854 10.338 0 0.004 0.004 0 0 0 0l292.582 292.582c2.854 2.855 2.859 7.484 0 10.342-2.859 2.851-7.488 2.848-10.342-0.005zM775.121 623.595c16.188 16.179 42.423 16.179 58.611 0 16.179-16.186 16.183-42.428 0-58.614l-292.582-292.58c-16.183-16.179-42.423-16.188-58.611 0l-292.791 292.789c-15.903 16.466-15.444 42.707 1.022 58.609 16.062 15.513 41.527 15.514 57.589-0.001l0.212-0.205 263.275-263.278 263.275 263.279z" />
<glyph unicode="&#xe902;" glyph-name="fullscr-full" d="M298.667 362.667h-85.334v-213.333h213.333v85.333h-128v128zM213.333 533.333h85.334v128h128v85.334h-213.333v-213.333zM597.333 746.667v-85.334h128v-128h85.333v213.333h-213.333zM725.333 234.667h-128v-85.333h213.333v213.333h-85.333v-128z" />
<glyph unicode="&#xe903;" glyph-name="fullscr-normal" d="M341.333 149.333h85.333v213.333h-213.333v-85.333h128v-128zM426.667 746.667h-85.333v-128h-128v-85.333h213.333v213.333zM810.667 533.333v85.333h-128v128h-85.333v-213.333h213.333zM682.667 277.333h128v85.333h-213.333v-213.333h85.333v128z" />
<glyph unicode="&#xe904;" glyph-name="hide-controller" d="M810.667 490.667h-597.333c-23.564 0-42.667-19.102-42.667-42.667s19.103-42.667 42.667-42.667h597.333c23.565 0 42.667 19.102 42.667 42.667s-19.102 42.667-42.667 42.667zM810.667 746.667h-597.333c-23.564 0-42.667-19.103-42.667-42.667s19.103-42.667 42.667-42.667h597.333c23.565 0 42.667 19.103 42.667 42.667s-19.102 42.667-42.667 42.667zM810.667 234.667h-597.333c-23.564 0-42.667-19.102-42.667-42.667s19.103-42.667 42.667-42.667h597.333c23.565 0 42.667 19.102 42.667 42.667s-19.102 42.667-42.667 42.667z" />
<glyph unicode="&#xe905;" glyph-name="hide-markers" d="M498.266 832c-157.124 0-284.932-127.808-284.932-284.933 0-53.068 14.709-104.891 42.548-149.853l214.327-345.387c6.831-11.008 18.863-17.694 31.808-17.694h0.294c13.052 0.102 25.114 6.997 31.821 18.202l208.87 348.74c26.308 44.015 40.201 94.498 40.201 145.992 0 157.125-127.808 284.933-284.937 284.933zM287.9 547.067c0 115.817 94.549 210.366 210.365 210.366 115.806 0 210.219-94.536 210.219-210.366 0-37.964-10.377-75.169-29.739-107.566l-177.297-296.026-181.943 293.197c-20.512 33.131-31.606 71.309-31.606 110.395zM462.135 692.601c-65.285-16.207-113.802-75.301-113.802-145.534 0-15.956 2.499-31.372 7.139-45.857 19.239-60.049 75.299-104.077 142.793-104.077 84.834 0 149.935 68.766 149.935 149.934 0 82.686-67.247 149.933-149.935 149.933-12.45 0-24.555-1.525-36.13-4.399zM422.9 547.067c0 41.378 33.987 75.366 75.366 75.366 41.348 0 75.217-33.956 75.217-75.366 0-40.989-32.998-75.366-75.217-75.366-41.621 0-75.366 33.847-75.366 75.366z" />
<glyph unicode="&#xe906;" glyph-name="info" d="M428.587 501.047c-1.229-2.718-1.92-5.79-1.92-9.050v-47.77c0-11.046 7.957-19.998 17.779-19.998h17.775v-144.461h-17.775c-9.822 0-17.779-8.951-17.779-19.998v-47.77c0-11.046 7.957-20.002 17.779-20.002h135.108c9.822 0 17.779 8.956 17.779 20.002v47.77c0 11.046-7.957 19.998-17.779 19.998h-17.775v212.228c0 11.046-7.962 20.002-17.779 20.002h-99.554c-6.925 0-12.924-4.454-15.859-10.953zM374.979 570.074c-8.049 19.75-12.312 40.949-12.312 61.926 0 77.167 57.687 157.333 149.333 157.333 91.644 0 149.333-80.166 149.333-157.333 0-31.319-9.502-63.133-26.923-89.881 8.363-15.945 12.702-33.528 12.702-50.121v-152.375c23.198-21.026 35.554-51.849 35.554-79.851v-47.77c0-48.448-36.992-105.335-103.113-105.335h-135.108c-66.119 0-103.113 56.887-103.113 105.335v47.77c0 28.002 12.358 58.825 35.555 79.851v24.755c-23.197 21.026-35.555 51.849-35.555 79.851v47.77c0 27.226 11.68 57.114 33.646 78.076zM455.893 597.333c10.889-22.254 31.932-37.333 56.107-37.333 11.657 0 22.588 3.506 32 9.632 9.391 6.113 17.276 14.834 22.869 25.283 5.798 10.831 9.131 23.52 9.131 37.085 0 39.765-28.655 72-64 72s-64-32.235-64-72c0-12.567 2.863-24.383 7.893-34.667z" />
<glyph unicode="&#xe907;" glyph-name="info2" d="M352 108.599h36.923v266.689h-36.923c-20.393 0-36.923 16.531-36.923 36.923v88.192c0 20.393 16.53 36.923 36.923 36.923h206.769c20.393 0 36.923-16.531 36.923-36.923v-391.804h36.923c20.393 0 36.923-16.534 36.923-36.927v-88.19c0-20.393-16.531-36.927-36.923-36.927h-280.615c-20.393 0-36.923 16.534-36.923 36.927v88.19c0 20.393 16.53 36.927 36.923 36.927zM492.308 891.788c-73.412 0-132.923-59.51-132.923-132.923s59.511-132.923 132.923-132.923c73.412 0 132.923 59.511 132.923 132.923s-59.513 132.923-132.923 132.923z" />
<glyph unicode="&#xe908;" glyph-name="left" d="M629.188 770.24c16.465 15.902 42.705 15.446 58.607-1.020 15.514-16.062 15.518-41.529 0-57.591l-263.481-263.485 263.276-263.275c16.183-16.183 16.179-42.428-0.004-58.611s-42.423-16.183-58.607 0l-292.583 292.582c-16.181 16.188-16.181 42.423 0.002 58.611l292.791 292.788z" />
<glyph unicode="&#xe909;" glyph-name="link" d="M587.187 523.243c-8.090 8.137-17.054 15.347-26.735 21.501-25.638 16.417-55.441 25.141-85.888 25.141-42.253 0.079-82.792-16.71-112.618-46.642l-144.699-144.811c-29.776-29.833-46.512-70.255-46.538-112.405-0.056-87.957 71.2-159.305 159.158-159.364 42.19-0.145 82.691 16.563 112.506 46.417l119.445 119.445c2.172 2.15 3.383 5.086 3.366 8.141-0.038 6.285-5.158 11.345-11.443 11.311h-4.548c-24.956-0.090-49.69 4.702-72.806 14.106-4.258 1.754-9.152 0.764-12.399-2.505l-85.887-85.999c-26.67-26.671-69.91-26.671-96.58 0s-26.67 69.909 0 96.58l145.27 145.152c26.645 26.615 69.815 26.615 96.465 0 17.958-16.9 45.973-16.9 63.932 0 7.727 7.735 12.412 17.993 13.197 28.898 0.828 13.030-3.977 25.792-13.197 35.034zM806.635 742.685c-62.199 62.198-163.042 62.198-225.237 0l-119.334-119.217c-3.277-3.293-4.22-8.245-2.389-12.514 1.813-4.281 6.046-7.028 10.692-6.939h4.211c24.926 0.045 49.617-4.785 72.691-14.22 4.258-1.753 9.152-0.764 12.399 2.502l85.658 85.546c26.671 26.67 69.909 26.67 96.58 0s26.671-69.91 0-96.58l-106.705-106.592-0.909-1.024-37.312-37.082c-26.65-26.615-69.82-26.615-96.469 0-17.958 16.9-45.973 16.9-63.927 0-7.778-7.795-12.466-18.138-13.198-29.124-0.832-13.030 3.974-25.792 13.198-35.038 13.167-13.222 28.57-24.004 45.5-31.851 2.389-1.135 4.779-2.048 7.168-3.072s4.89-1.818 7.279-2.731c2.389-0.909 4.894-1.707 7.279-2.389l6.716-1.818c4.548-1.139 9.101-2.048 13.764-2.842 5.615-0.836 11.273-1.37 16.947-1.596h8.644l6.827 0.798c2.505 0.111 5.12 0.683 8.077 0.683h3.87l7.846 1.135 3.644 0.683 6.596 1.365h1.25c27.942 7.019 53.461 21.487 73.83 41.865l144.811 144.811c62.204 62.199 62.204 163.042 0.004 225.24z" />
<glyph unicode="&#xe90a;" glyph-name="link2" d="M642.323 549.566c110.302-110.417 108.788-287.442 0.665-396.163-0.203-0.228-0.443-0.465-0.665-0.685l-124.062-124.062c-109.421-109.426-287.444-109.41-396.849 0-109.422 109.403-109.422 287.445 0 396.848l68.503 68.503c18.166 18.166 49.451 6.092 50.389-19.58 1.197-32.718 7.063-65.588 17.889-97.331 3.667-10.748 1.047-22.637-6.984-30.668l-24.161-24.161c-51.74-51.74-53.363-135.987-2.132-188.233 51.736-52.76 136.774-53.075 188.908-0.945l124.062 124.047c52.045 52.045 51.827 136.167 0 187.994-6.832 6.82-13.715 12.118-19.091 15.819-3.804 2.612-6.944 6.076-9.17 10.117s-3.478 8.546-3.655 13.156c-0.732 19.508 6.18 39.611 21.596 55.027l38.869 38.87c10.193 10.193 26.182 11.444 38.001 3.196 13.535-9.452 26.213-20.075 37.886-31.748zM902.514 809.767c-109.408 109.406-287.431 109.421-396.853 0l-124.062-124.062c-0.221-0.222-0.462-0.462-0.665-0.684-108.122-108.724-109.637-285.75 0.665-396.166 11.673-11.673 24.35-22.296 37.885-31.746 11.819-8.249 27.811-6.995 38.001 3.196l38.869 38.871c15.416 15.415 22.328 35.518 21.596 55.027-0.176 4.61-1.428 9.115-3.655 13.155s-5.367 7.505-9.17 10.117c-5.376 3.701-12.258 9-19.091 15.819-51.827 51.828-52.045 135.949 0 187.994l124.062 124.043c52.133 52.133 137.169 51.82 188.908-0.941 51.231-52.246 49.608-136.494-2.132-188.234l-24.161-24.161c-8.031-8.031-10.65-19.92-6.984-30.668 10.826-31.743 16.693-64.614 17.889-97.331 0.94-25.672 32.223-37.746 50.392-19.58l68.498 68.504c109.426 109.401 109.426 287.444 0.008 396.847z" />
<glyph unicode="&#xe90b;" glyph-name="play2" d="M845.132 489.012l-585.142 378.364c-47.543 30.727-120.354 0.909-120.354-75.091v-756.546c0-68.182 67.657-109.272 120.354-75.089l585.142 378.18c52.198 33.637 52.364 116.546 0 150.182z" />
<glyph unicode="&#xe90c;" glyph-name="plus" d="M984.615 419.173c0-54.378-44.079-98.462-98.462-98.462h-748.308c-54.379 0-98.462 44.083-98.462 98.462s44.083 98.462 98.462 98.462h748.308c54.382 0 98.462-44.082 98.462-98.462zM512-53.445c-54.379 0-98.462 44.087-98.462 98.462v748.31c0 54.379 44.082 98.462 98.462 98.462s98.462-44.083 98.462-98.462v-748.31c0-54.374-44.083-98.462-98.462-98.462z" />
<glyph unicode="&#xe90d;" glyph-name="right" d="M394.807 770.24c-16.465 15.902-42.705 15.446-58.607-1.020-15.513-16.062-15.516-41.529-0.001-57.591l263.486-263.485-263.278-263.275c-16.183-16.183-16.18-42.428 0.003-58.611 16.186-16.183 42.424-16.183 58.609 0l292.585 292.582c16.179 16.188 16.179 42.423-0.004 58.611l-292.792 292.788z" />
<glyph unicode="&#xe90e;" d="M707.665 746.667h-494.332c-23.564 0-42.667-19.103-42.667-42.667s19.103-42.667 42.667-42.667h408.998l85.333 85.333zM451.665 490.667h-238.332c-23.564 0-42.667-19.102-42.667-42.667s19.103-42.667 42.667-42.667h152.996l85.335 85.333zM426.671 405.333l85.333 85.333h60.339l-85.333-85.333h-60.339zM183.459 222.46c-0.198-0.192-0.394-0.388-0.588-0.585l0.588 0.585zM183.165 161.826l72.838 72.841h60.34l-85.333-85.333h-17.676c-11.782 0-22.447 4.774-30.168 12.493zM291.349 149.333h519.318c23.565 0 42.667 19.102 42.667 42.667s-19.102 42.667-42.667 42.667h-433.984l-85.333-85.333zM547.349 405.333h263.317c23.565 0 42.667 19.102 42.667 42.667s-19.102 42.667-42.667 42.667h-177.984l-85.333-85.333zM803.349 661.333h7.317c23.565 0 42.667 19.102 42.667 42.667 0 2.308-0.183 4.573-0.538 6.781l-49.446-49.448zM768.004 746.667h42.662c5.269 0 10.317-0.955 14.976-2.702l-82.633-82.632h-60.339l85.333 85.333z" />
<glyph unicode="&#xe90f;" d="M107.281 85.943l766.754 766.755 30.17-30.17-766.754-766.755-30.17 30.17z" />
<glyph unicode="&#xe910;" d="M128 192l640 640 30.17-30.17-640-640-30.17 30.17z" />
<glyph unicode="&#xe911;" d="M658.347 782.682c-45.653 31.114-100.783 49.318-160.081 49.318-157.124 0-284.932-127.808-284.932-284.933 0-53.068 14.709-104.891 42.548-149.853l6.508-10.487 54.42 54.421c-18.787 32.073-28.91 68.578-28.91 105.919 0 115.817 94.549 210.366 210.365 210.366 38.618 0 74.854-10.513 106.005-28.822l54.076 54.070zM559.561 683.898c-18.722 8.417-39.471 13.102-61.295 13.102-12.454 0-24.555-1.525-36.13-4.399-65.285-16.207-113.802-75.301-113.802-145.534 0-15.956 2.499-31.372 7.139-45.857 1.695-5.291 3.675-10.453 5.924-15.475l61.504 61.503c0.093 41.245 33.949 75.103 75.195 75.196l61.466 61.465zM558.178 501.5l84.817 84.811c3.396-12.512 5.205-25.67 5.205-39.244 0-81.168-65.105-149.934-149.935-149.934-13.636 0-26.799 1.796-39.287 5.158l84.501 84.51c5.559 4.198 10.505 9.156 14.699 14.699zM386.077 329.395l115.372-185.92 177.297 296.026c19.362 32.397 29.734 69.602 29.734 107.566 0 30.686-6.626 59.878-18.522 86.213l55.462 55.462c24.026-41.754 37.777-90.138 37.777-141.675 0-51.494-13.888-101.977-40.192-145.992l-208.875-348.74c-6.711-11.204-18.769-18.099-31.821-18.202h-0.299c-12.941 0-24.969 6.686-31.799 17.694l-138.506 223.198 54.37 54.37z" />
<glyph unicode="&#xe912;" glyph-name="up" d="M541.158 623.604c-16.188 16.179-42.423 16.183-58.611-0.003l-292.788-292.794c-15.904-16.465-15.444-42.705 1.019-58.607 16.062-15.514 41.529-15.518 57.591 0l263.485 263.484 263.275-263.279c16.188-16.179 42.428-16.175 58.615 0.004 16.179 16.188 16.183 42.423-0.004 58.611l-292.582 292.584z" />
<glyph unicode="&#xe913;" glyph-name="zoomin" d="M584 465.331h-242.667v64h242.667v-64zM430.669 379.895v238.771h64v-238.771h-64zM469.333 789.333c-164.681 0-298.667-133.986-298.667-298.667 0-164.689 133.986-298.667 298.667-298.667 164.689 0 298.667 133.978 298.667 298.667 0 164.681-133.978 298.667-298.667 298.667zM469.333 273.067c-134.281 0-217.6 83.319-217.6 217.6s87.997 217.6 217.6 217.6c129.604 0 217.6-83.319 217.6-217.6s-83.319-217.6-217.6-217.6zM689.741 325.598c-15.283 15.283-40.047 15.287-55.334 0.004-15.287-15.279-15.292-40.068-0.009-55.347l126.532-126.528c7.633-7.633 17.673-11.465 27.669-11.465 9.984 0 20.032 3.831 27.669 11.465 15.287 15.279 15.283 40.068-0.004 55.347l-126.524 126.524z" />
<glyph unicode="&#xe914;" glyph-name="zoomout" d="M597.333 448h-256v64h256v-64zM469.333 789.333c-164.681 0-298.667-133.986-298.667-298.667 0-164.689 133.986-298.667 298.667-298.667 164.689 0 298.667 133.978 298.667 298.667 0 164.681-133.978 298.667-298.667 298.667zM469.333 273.067c-134.281 0-217.6 83.319-217.6 217.6s87.997 217.6 217.6 217.6c129.604 0 217.6-83.319 217.6-217.6s-83.319-217.6-217.6-217.6zM689.741 325.598c-15.283 15.283-40.047 15.287-55.334 0.004-15.287-15.279-15.292-40.068-0.009-55.347l126.532-126.528c7.633-7.633 17.673-11.465 27.669-11.465 9.984 0 20.032 3.831 27.669 11.465 15.287 15.279 15.283 40.068-0.004 55.347l-126.524 126.524z" />
</font>
</defs>
</svg>
